<svg
  width="88"
  height="89"
  viewBox="0 0 88 89"
  fill="none"
  xmlns="http://www.w3.org/2000/svg"
>
  <path
    fill-rule="evenodd"
    clip-rule="evenodd"
    d="M44.1611 88.0024C68.1881 88.0024 87.6659 68.5247 87.6659 44.4976C87.6659 20.4706 68.1881 0.992798 44.1611 0.992798C20.134 0.992798 0.65625 20.4706 0.65625 44.4976C0.65625 68.5247 20.134 88.0024 44.1611 88.0024Z"
    fill="#FCEAEA"
  />
  <path
    fill-rule="evenodd"
    clip-rule="evenodd"
    d="M49.3685 44.7504C49.0582 43.8729 48.4835 43.1132 47.7235 42.5759C46.9636 42.0385 46.0557 41.75 45.125 41.75V40.625H42.875V41.75C41.6815 41.75 40.5369 42.2241 39.693 43.068C38.8491 43.9119 38.375 45.0565 38.375 46.25C38.375 47.4435 38.8491 48.5881 39.693 49.432C40.5369 50.2759 41.6815 50.75 42.875 50.75V55.25C41.8962 55.25 41.0626 54.6256 40.7521 53.7504C40.7061 53.6072 40.6317 53.4747 40.5336 53.3607C40.4354 53.2467 40.3154 53.1536 40.1806 53.0868C40.0458 53.0201 39.899 52.981 39.7488 52.9719C39.5987 52.9629 39.4482 52.9841 39.3064 53.0342C39.1646 53.0843 39.0342 53.1623 38.9231 53.2637C38.8119 53.3651 38.7223 53.4877 38.6593 53.6243C38.5964 53.7609 38.5615 53.9088 38.5567 54.0591C38.552 54.2095 38.5774 54.3593 38.6315 54.4996C38.9418 55.3771 39.5165 56.1368 40.2765 56.6741C41.0364 57.2115 41.9443 57.5 42.875 57.5V58.625H45.125V57.5C46.3185 57.5 47.4631 57.0259 48.307 56.182C49.1509 55.3381 49.625 54.1935 49.625 53C49.625 51.8065 49.1509 50.6619 48.307 49.818C47.4631 48.9741 46.3185 48.5 45.125 48.5V44C45.5903 43.9999 46.0442 44.144 46.4242 44.4126C46.8042 44.6812 47.0916 45.0609 47.2467 45.4996C47.3461 45.781 47.5532 46.0114 47.8224 46.1401C47.9557 46.2038 48.1002 46.2406 48.2478 46.2485C48.3953 46.2563 48.5429 46.2351 48.6823 46.1859C48.8216 46.1367 48.9498 46.0605 49.0597 45.9618C49.1696 45.863 49.259 45.7436 49.3227 45.6103C49.3864 45.477 49.4232 45.3324 49.4311 45.1849C49.439 45.0373 49.4177 44.8897 49.3685 44.7504V44.7504ZM42.875 44C42.2783 44 41.706 44.2371 41.284 44.659C40.8621 45.081 40.625 45.6533 40.625 46.25C40.625 46.8467 40.8621 47.419 41.284 47.841C41.706 48.2629 42.2783 48.5 42.875 48.5V44ZM45.125 55.25C45.7217 55.25 46.294 55.0129 46.716 54.591C47.1379 54.169 47.375 53.5967 47.375 53C47.375 52.4033 47.1379 51.831 46.716 51.409C46.294 50.9871 45.7217 50.75 45.125 50.75V55.25Z"
    fill="#ED5F5F"
  />
  <path
    fill-rule="evenodd"
    clip-rule="evenodd"
    d="M31.7971 26.6986C34.5579 25.3475 39.0871 23.75 44.0439 23.75C48.8971 23.75 53.3071 25.2811 56.0532 26.6142L56.2085 26.6896C57.0365 27.0991 57.7047 27.4861 58.175 27.8L54.0192 33.875C63.5997 43.6693 71 64.2466 44.0439 64.2466C17.0877 64.2466 24.2889 44.0428 33.9526 33.875L29.8239 27.8C30.1422 27.5919 30.5461 27.35 31.0276 27.0935C31.2661 26.9653 31.5226 26.8336 31.7971 26.6997V26.6986ZM51.3485 33.794L54.6751 28.9306C51.5814 29.1534 47.9004 29.8801 44.3566 30.9061C41.8254 31.6374 39.0129 31.526 36.4085 31.0456C35.7522 30.924 35.1004 30.7791 34.4544 30.6114L36.6144 33.7917C41.2437 35.4399 46.718 35.4399 51.3485 33.794V33.794ZM35.315 35.7087C40.7319 37.8012 47.2422 37.8013 52.6591 35.7065C54.9202 38.09 56.8117 40.7987 58.2706 43.7424C59.7916 46.8451 60.6196 49.9468 60.4846 52.6198C60.3541 55.1994 59.3394 57.4032 57.0219 59.0412C54.6065 60.7479 50.5441 61.9966 44.0427 61.9966C37.5346 61.9966 33.4531 60.7692 31.0152 59.0817C28.6809 57.464 27.656 55.2905 27.5109 52.7458C27.359 50.102 28.169 47.0161 29.6844 43.892C31.13 40.913 33.1471 38.0454 35.315 35.7087V35.7087ZM34.0212 28.1555C34.9212 28.4233 35.8617 28.6561 36.8157 28.8327C39.2345 29.2782 41.66 29.3435 43.73 28.7439C46.1422 28.0411 48.5957 27.4885 51.0762 27.089C49.0062 26.4658 46.5852 26 44.0427 26C40.1671 26 36.5525 27.0811 34.0212 28.1555V28.1555Z"
    fill="#ED5F5F"
  />
</svg>
