<svg
  width="85"
  height="84"
  viewBox="0 0 85 84"
  fill="none"
  xmlns="http://www.w3.org/2000/svg"
>
  <path
    fill-rule="evenodd"
    clip-rule="evenodd"
    d="M42.5769 83.475C65.7949 83.475 84.6168 64.8937 84.6168 41.9724C84.6168 19.0512 65.7949 0.469849 42.5769 0.469849C19.359 0.469849 0.537109 19.0512 0.537109 41.9724C0.537109 64.8937 19.359 83.475 42.5769 83.475Z"
    fill="#D5D1FB"
  />
  <path
    d="M57 29V57H29V29H57ZM57 25H29C26.8 25 25 26.8 25 29V57C25 59.2 26.8 61 29 61H57C59.2 61 61 59.2 61 57V29C61 26.8 59.2 25 57 25Z"
    fill="#7E72F2"
  />
  <path d="M47 53H33V49H47V53ZM53 45H33V41H53V45ZM53 37H33V33H53V37Z" fill="#7E72F2" />
</svg>
