<svg
  width="87"
  height="88"
  viewBox="0 0 87 88"
  fill="none"
  xmlns="http://www.w3.org/2000/svg"
>
  <path
    fill-rule="evenodd"
    clip-rule="evenodd"
    d="M43.4907 87.8697C67.4916 87.8697 86.9482 68.4131 86.9482 44.4122C86.9482 20.4112 67.4916 0.954651 43.4907 0.954651C19.4898 0.954651 0.0332031 20.4112 0.0332031 44.4122C0.0332031 68.4131 19.4898 87.8697 43.4907 87.8697Z"
    fill="#FFDFC2"
  />
  <path
    d="M64.2039 30.25C63.5297 30.2502 62.8658 30.4274 62.2698 30.7663C61.6738 31.1051 61.1638 31.5954 60.784 32.1944C60.4042 32.7934 60.1661 33.4831 60.0905 34.2036C60.0149 34.9241 60.1039 35.6535 60.35 36.3285L51.6371 45.699C50.6658 45.2878 49.5857 45.2878 48.6145 45.699L42.3859 39.0004C42.6325 38.3252 42.7221 37.5955 42.6467 36.8746C42.5714 36.1537 42.3334 35.4636 41.9536 34.8642C41.5737 34.2647 41.0634 33.7742 40.4671 33.4352C39.8708 33.0962 39.2065 32.919 38.532 32.919C37.8575 32.919 37.1932 33.0962 36.5969 33.4352C36.0006 33.7742 35.4903 34.2647 35.1105 34.8642C34.7306 35.4636 34.4927 36.1537 34.4173 36.8746C34.342 37.5955 34.4315 38.3252 34.6781 39.0004L24.309 50.1521C23.4234 49.7785 22.4453 49.7442 21.539 50.055C20.6327 50.3658 19.8535 51.0028 19.3325 51.8587C18.8115 52.7147 18.5805 53.7374 18.6782 54.7551C18.7759 55.7727 19.1964 56.7231 19.869 57.4465C20.5417 58.1699 21.4254 58.6222 22.3716 58.7273C23.3178 58.8323 24.2688 58.5838 25.0647 58.0235C25.8606 57.4632 26.4528 56.6252 26.7418 55.6505C27.0308 54.6759 26.9989 53.6239 26.6515 52.6715L37.0207 41.5197C37.992 41.9309 39.0721 41.9309 40.0434 41.5197L46.2719 48.2184C46.0253 48.8935 45.9357 49.6233 46.0111 50.3441C46.0864 51.065 46.3244 51.7552 46.7042 52.3546C47.0841 52.954 47.5944 53.4446 48.1907 53.7836C48.787 54.1226 49.4513 54.2998 50.1258 54.2998C50.8003 54.2998 51.4646 54.1226 52.0609 53.7836C52.6572 53.4446 53.1675 52.954 53.5473 52.3546C53.9272 51.7552 54.1651 51.065 54.2405 50.3441C54.3158 49.6233 54.2263 48.8935 53.9797 48.2184L62.6926 38.8479C63.2596 39.0874 63.8687 39.1895 64.4765 39.1468C65.0844 39.1041 65.676 38.9176 66.2092 38.6008C66.7424 38.2839 67.204 37.8445 67.5611 37.3137C67.9182 36.783 68.162 36.174 68.2752 35.5303C68.3883 34.8866 68.368 34.2239 68.2157 33.5896C68.0634 32.9553 67.7828 32.3649 67.394 31.8606C67.0051 31.3563 66.5176 30.9505 65.9662 30.6721C65.4148 30.3937 64.8131 30.2496 64.2039 30.25Z"
    fill="#FF9F43"
  />
</svg>
