<svg
  width="88"
  height="89"
  viewBox="0 0 88 89"
  fill="none"
  xmlns="http://www.w3.org/2000/svg"
>
  <path
    fill-rule="evenodd"
    clip-rule="evenodd"
    d="M44.1611 88.0024C68.1881 88.0024 87.6659 68.5247 87.6659 44.4976C87.6659 20.4706 68.1881 0.992798 44.1611 0.992798C20.134 0.992798 0.65625 20.4706 0.65625 44.4976C0.65625 68.5247 20.134 88.0024 44.1611 88.0024Z"
    fill="#E6F7EE"
  />
  <path
    d="M45.5827 41.7083C40.8535 40.4792 39.3327 39.2083 39.3327 37.2292C39.3327 34.9583 41.4368 33.375 44.9577 33.375C48.666 33.375 50.041 35.1458 50.166 37.75H54.7702C54.6243 34.1667 52.4368 30.875 48.0827 29.8125V25.25H41.8327V29.75C37.791 30.625 34.541 33.25 34.541 37.2708C34.541 42.0833 38.5202 44.4792 44.3327 45.875C49.541 47.125 50.5827 48.9583 50.5827 50.8958C50.5827 52.3333 49.5618 54.625 44.9577 54.625C40.666 54.625 38.9785 52.7083 38.7493 50.25H34.166C34.416 54.8125 37.8327 57.375 41.8327 58.2292V62.75H48.0827V58.2708C52.1452 57.5 55.3743 55.1458 55.3743 50.875C55.3743 44.9583 50.3118 42.9375 45.5827 41.7083Z"
    fill="#2DCD7A"
  />
</svg>
