<svg
  width="88"
  height="89"
  viewBox="0 0 88 89"
  fill="none"
  xmlns="http://www.w3.org/2000/svg"
>
  <path
    fill-rule="evenodd"
    clip-rule="evenodd"
    d="M44.1611 88.0024C68.1881 88.0024 87.6659 68.5247 87.6659 44.4976C87.6659 20.4706 68.1881 0.992798 44.1611 0.992798C20.134 0.992798 0.65625 20.4706 0.65625 44.4976C0.65625 68.5247 20.134 88.0024 44.1611 88.0024Z"
    fill="#BFDBFE"
  />
  <path
    d="M38.875 24.1C38.5236 24.1 38.1866 24.2343 37.9381 24.4734C37.6896 24.7125 37.55 25.0368 37.55 25.375C37.55 25.7131 37.6896 26.0374 37.9381 26.2765C38.1866 26.5156 38.5236 26.65 38.875 26.65H49.475C49.8264 26.65 50.1634 26.5156 50.4119 26.2765C50.6604 26.0374 50.8 25.7131 50.8 25.375C50.8 25.0368 50.6604 24.7125 50.4119 24.4734C50.1634 24.2343 49.8264 24.1 49.475 24.1H38.875ZM59.1634 29.0189C59.0412 28.8971 58.895 28.8 58.7333 28.7332C58.5717 28.6664 58.3978 28.6312 58.2219 28.6297C58.0459 28.6283 57.8714 28.6605 57.7086 28.7246C57.5458 28.7887 57.3978 28.8834 57.2734 29.0031C57.149 29.1228 57.0506 29.2652 56.984 29.4219C56.9174 29.5786 56.8839 29.7465 56.8854 29.9158C56.8869 30.0851 56.9235 30.2524 56.9929 30.4079C57.0624 30.5635 57.1633 30.7042 57.2898 30.8218L61.0369 34.4275C61.1592 34.5493 61.3054 34.6464 61.467 34.7132C61.6287 34.78 61.8026 34.8152 61.9785 34.8167C62.1544 34.8181 62.3289 34.7859 62.4917 34.7218C62.6546 34.6577 62.8025 34.563 62.9269 34.4433C63.0513 34.3236 63.1497 34.1812 63.2163 34.0245C63.283 33.8678 63.3165 33.6999 63.315 33.5306C63.3134 33.3613 63.2769 33.194 63.2074 33.0385C63.138 32.8829 63.037 32.7422 62.9105 32.6246L59.1634 29.0215V29.0189ZM44.175 34.3C43.8236 34.3 43.4866 34.4343 43.2381 34.6734C42.9896 34.9125 42.85 35.2368 42.85 35.575V48.325C42.85 48.6631 42.9896 48.9874 43.2381 49.2265C43.4866 49.4656 43.8236 49.6 44.175 49.6C44.5264 49.6 44.8634 49.4656 45.1119 49.2265C45.3604 48.9874 45.5 48.6631 45.5 48.325V35.575C45.5 35.2368 45.3604 34.9125 45.1119 34.6734C44.8634 34.4343 44.5264 34.3 44.175 34.3ZM44.175 64.9C46.611 64.9 49.0232 64.4383 51.2738 63.5412C53.5244 62.6442 55.5693 61.3294 57.2918 59.6718C59.0144 58.0143 60.3807 56.0465 61.313 53.8809C62.2452 51.7152 62.725 49.3941 62.725 47.05C62.725 44.7059 62.2452 42.3847 61.313 40.2191C60.3807 38.0534 59.0144 36.0856 57.2918 34.4281C55.5693 32.7706 53.5244 31.4558 51.2738 30.5587C49.0232 29.6617 46.611 29.2 44.175 29.2C39.2552 29.2 34.537 31.0806 31.0582 34.4281C27.5794 37.7756 25.625 42.3159 25.625 47.05C25.625 51.7841 27.5794 56.3243 31.0582 59.6718C34.537 63.0194 39.2552 64.9 44.175 64.9V64.9ZM44.175 62.35C42.087 62.35 40.0194 61.9542 38.0903 61.1853C36.1613 60.4164 34.4085 59.2894 32.932 57.8687C31.4555 56.448 30.2844 54.7613 29.4853 52.905C28.6863 51.0488 28.275 49.0592 28.275 47.05C28.275 45.0408 28.6863 43.0512 29.4853 41.1949C30.2844 39.3386 31.4555 37.652 32.932 36.2312C34.4085 34.8105 36.1613 33.6835 38.0903 32.9146C40.0194 32.1457 42.087 31.75 44.175 31.75C48.3919 31.75 52.4362 33.3619 55.418 36.2312C58.3998 39.1005 60.075 42.9922 60.075 47.05C60.075 51.1078 58.3998 54.9994 55.418 57.8687C52.4362 60.738 48.3919 62.35 44.175 62.35V62.35Z"
    fill="#2563EB"
  />
</svg>
